<?xml version="1.0" encoding="utf-8"?>
<!-- Generator: Adobe Illustrator 16.0.0, SVG Export Plug-In . SVG Version: 6.00 Build 0)  -->
<!DOCTYPE svg PUBLIC "-//W3C//DTD SVG 1.1//EN" "http://www.w3.org/Graphics/SVG/1.1/DTD/svg11.dtd">
<svg version="1.1" id="Layer_1" xmlns="http://www.w3.org/2000/svg" xmlns:xlink="http://www.w3.org/1999/xlink" x="0px" y="0px"
	 width="495px" height="132.125px" viewBox="0 0 495 132.125" enable-background="new 0 0 495 132.125" xml:space="preserve">
<g>
	<g>
		<polygon fill="#6F7275" points="120.013,102.455 120.013,85.119 135.103,76.322 135.103,128.338 104.916,111.271 104.93,111.242 
					"/>
		<polygon fill="#6F7275" points="120.013,50.453 135.103,41.637 135.103,58.99 120.013,50.453 		"/>
		<polygon fill="#9D9FA1" points="120.013,102.455 68.168,73.135 68.168,55.785 120.013,85.119 		"/>
		<polygon fill="#174F8E" points="135.103,41.637 120.013,50.453 120.013,50.453 68.168,21.132 16.336,50.453 1.264,41.637 
			68.168,3.788 		"/>
		<polygon fill="#174F8E" points="68.168,90.477 16.341,119.799 16.336,119.799 1.264,110.992 68.168,73.135 120.013,102.455 
			104.93,111.252 104.916,111.271 		"/>
		<polygon fill="#6F7275" points="31.487,76.559 1.269,93.646 1.269,41.637 16.331,50.453 16.331,67.652 31.433,76.461 		"/>
		<polygon fill="#174F8E" points="68.168,55.785 31.492,76.559 31.433,76.461 16.336,67.652 68.168,38.455 135.103,76.322 
			120.013,85.119 		"/>
		<polygon fill="#9D9FA1" points="68.168,21.132 68.168,38.455 16.336,67.652 16.336,50.447 		"/>
		<polygon fill="#6F7275" points="16.341,119.799 1.264,128.328 1.264,110.992 16.331,119.799 		"/>
	</g>
	<g>
		<path fill="#6F7275" d="M176.763,69.486h16.717v24.08c0,12.152-6.088,19.096-17.793,19.096c-11.72,0-17.793-6.943-17.793-19.096
			V54.074c0-12.149,6.073-19.088,17.793-19.088c11.705,0,17.793,6.938,17.793,19.088v7.377H182.19v-8.135
			c0-5.428-2.384-7.484-6.187-7.484c-3.794,0-6.189,2.057-6.189,7.484v41.01c0,5.424,2.396,7.381,6.189,7.381
			c3.803,0,6.187-1.957,6.187-7.381V80.328h-5.428V69.486z"/>
		<path fill="#6F7275" d="M213.104,46.697v23.33h4.664c4.44,0,7.157-1.957,7.157-8.031v-7.484c0-5.426-1.842-7.814-6.073-7.814
			H213.104z M226.121,111.789c-0.659-1.945-1.086-3.129-1.086-9.324v-11.93c0-7.053-2.392-9.658-7.806-9.658h-4.125v30.912h-11.939
			v-75.94h18.011c12.367,0,17.69,5.751,17.69,17.468v5.963c0,7.814-2.505,12.92-7.827,15.412c5.98,2.494,7.932,8.24,7.932,16.168
			v11.709c0,3.688,0.107,6.406,1.302,9.221H226.121z"/>
		<path fill="#6F7275" d="M256.155,35.849v58.589c0,5.422,2.394,7.379,6.193,7.379c3.79,0,6.185-1.957,6.185-7.379V35.849h11.28
			v57.829c0,12.15-6.071,19.098-17.799,19.098c-11.716,0-17.78-6.947-17.78-19.098V35.849H256.155z"/>
		<path fill="#6F7275" d="M299.881,46.697v25.707h5.628c3.803,0,5.868-1.734,5.868-7.152V53.859c0-5.422-2.065-7.162-5.868-7.162
			H299.881z M323.308,54.615v9.865c0,12.158-5.858,18.777-17.799,18.777h-5.628v28.531h-11.937v-75.94h17.564
			C317.449,35.849,323.308,42.463,323.308,54.615"/>
		<path fill="#6F7275" d="M339.791,94.326c0,5.424,2.391,7.49,6.19,7.49c3.794,0,6.175-2.066,6.175-7.49V53.312
			c0-5.424-2.381-7.48-6.175-7.48c-3.8,0-6.19,2.057-6.19,7.48V94.326z M327.86,54.068c0-12.144,6.406-19.087,18.121-19.087
			c11.709,0,18.115,6.943,18.115,19.087v39.498c0,12.152-6.406,19.096-18.115,19.096c-11.715,0-18.121-6.943-18.121-19.096V54.068z"
			/>
	</g>
	<rect x="157.894" y="122.469" fill="#6F7275" width="206.203" height="5.869"/>
	<g>
		<path fill="#174F8E" d="M390.036,34.986c11.611,0,17.57,6.938,17.57,19.082v2.393h-11.277v-3.148c0-5.424-2.172-7.48-5.972-7.48
			s-5.969,2.057-5.969,7.48c0,15.623,23.331,18.551,23.331,40.254c0,12.152-6.072,19.096-17.797,19.096
			c-11.718,0-17.789-6.943-17.789-19.096v-4.662h11.28v5.422c0,5.424,2.391,7.381,6.185,7.381c3.79,0,6.184-1.957,6.184-7.381
			c0-15.629-23.323-18.551-23.323-40.258C372.459,41.925,378.417,34.986,390.036,34.986"/>
		<path fill="#174F8E" d="M430.599,34.986c11.609,0,17.574,6.938,17.574,19.082v2.393h-11.287v-3.148c0-5.424-2.162-7.48-5.962-7.48
			c-3.793,0-5.972,2.057-5.972,7.48c0,15.623,23.334,18.551,23.334,40.254c0,12.152-6.078,19.096-17.79,19.096
			c-11.725,0-17.799-6.943-17.799-19.096v-4.662h11.283v5.422c0,5.424,2.394,7.381,6.185,7.381c3.8,0,6.181-1.957,6.181-7.381
			c0-15.629-23.32-18.551-23.32-40.258C413.025,41.925,418.993,34.986,430.599,34.986"/>
	</g>
	<path fill="#174F8E" d="M466.503,87.707h11.503l-5.756-38.402L466.503,87.707z M493.736,111.789h-12.04l-2.06-13.773h-14.655
		l-2.056,13.773h-10.959l12.149-75.94h17.471L493.736,111.789z"/>
	<rect x="364.097" y="122.469" fill="#174F8E" width="129.64" height="5.869"/>
</g>
</svg>
