<?xml version="1.0" encoding="utf-8"?>
<!-- Generator: Adobe Illustrator 16.0.0, SVG Export Plug-In . SVG Version: 6.00 Build 0)  -->
<!DOCTYPE svg PUBLIC "-//W3C//DTD SVG 1.1//EN" "http://www.w3.org/Graphics/SVG/1.1/DTD/svg11.dtd">
<svg version="1.1" id="Layer_1" xmlns="http://www.w3.org/2000/svg" xmlns:xlink="http://www.w3.org/1999/xlink" x="0px" y="0px"
	 width="1288px" height="333.125px" viewBox="0 0 1288 333.125" enable-background="new 0 0 1288 333.125" xml:space="preserve">
<g>
	<g>
		<polygon fill="#FFFFFF" points="312.549,261.18 312.549,216.109 351.781,193.238 351.781,328.471 273.299,284.1 273.336,284.025 
					"/>
		<polygon fill="#FFFFFF" points="312.549,125.98 351.781,103.059 351.781,148.176 312.549,125.98 		"/>
		<polygon fill="#FFFFFF" points="351.781,103.059 312.549,125.98 312.549,125.98 177.76,49.748 43.001,125.98 3.816,103.059 
			177.76,4.655 		"/>
		<polygon fill="#FFFFFF" points="177.76,230.037 43.015,306.271 43.001,306.271 3.816,283.375 177.76,184.949 312.549,261.18 
			273.336,284.051 273.299,284.1 		"/>
		<polygon fill="#FFFFFF" points="82.394,193.85 3.829,238.277 3.829,103.059 42.99,125.98 42.99,170.695 82.251,193.598 		"/>
		<polygon fill="#FFFFFF" points="177.76,139.844 82.406,193.85 82.251,193.598 43.001,170.695 177.76,94.787 351.781,193.238 
			312.549,216.109 		"/>
		<polygon fill="#FFFFFF" points="43.015,306.271 3.816,328.445 3.816,283.375 42.99,306.271 		"/>
	</g>
	<g>
		<path fill="#FFFFFF" d="M460.092,175.465h43.461v62.605c0,31.594-15.826,49.645-46.26,49.645
			c-30.469,0-46.258-18.051-46.258-49.645V135.395c0-31.588,15.789-49.625,46.258-49.625c30.434,0,46.26,18.037,46.26,49.625v19.18
			h-29.35v-21.15c0-14.109-6.197-19.459-16.086-19.459c-9.861,0-16.09,5.35-16.09,19.459v106.619
			c0,14.104,6.229,19.191,16.09,19.191c9.889,0,16.086-5.088,16.086-19.191V203.65h-14.111V175.465z"/>
		<path fill="#FFFFFF" d="M554.576,116.217v60.654h12.125c11.547,0,18.609-5.088,18.609-20.883v-19.457
			c0-14.105-4.789-20.314-15.791-20.314H554.576z M588.418,285.445c-1.713-5.057-2.824-8.135-2.824-24.242v-31.016
			c0-18.336-6.217-25.109-20.293-25.109h-10.725v80.367h-31.041V88.01h46.826c32.152,0,45.992,14.953,45.992,45.414v15.502
			c0,20.318-6.512,33.592-20.35,40.072c15.549,6.482,20.623,21.424,20.623,42.033v30.441c0,9.588,0.277,16.654,3.383,23.973H588.418
			z"/>
		<path fill="#FFFFFF" d="M666.502,88.01v152.324c0,14.098,6.225,19.184,16.102,19.184c9.855,0,16.082-5.086,16.082-19.184V88.01
			h29.324v150.35c0,31.588-15.783,49.65-46.273,49.65c-30.461,0-46.225-18.062-46.225-49.65V88.01H666.502z"/>
		<path fill="#FFFFFF" d="M780.184,116.217v66.834h14.631c9.889,0,15.26-4.51,15.26-18.596v-29.619
			c0-14.096-5.371-18.619-15.26-18.619H780.184z M841.09,136.799v25.65c0,31.611-15.232,48.818-46.275,48.818h-14.631v74.178H749.15
			V88.01h45.664C825.857,88.01,841.09,105.209,841.09,136.799"/>
		<path fill="#FFFFFF" d="M883.945,240.043c0,14.104,6.217,19.475,16.094,19.475c9.863,0,16.053-5.371,16.053-19.475V133.414
			c0-14.1-6.189-19.449-16.053-19.449c-9.877,0-16.094,5.35-16.094,19.449V240.043z M852.928,135.379
			c0-31.572,16.654-49.625,47.111-49.625c30.443,0,47.098,18.053,47.098,49.625V238.07c0,31.594-16.654,49.645-47.098,49.645
			c-30.457,0-47.111-18.051-47.111-49.645V135.379z"/>
	</g>
	<rect x="411.035" y="313.213" fill="#FFFFFF" width="536.102" height="15.258"/>
	<g>
		<path fill="#FFFFFF" d="M1014.576,85.77c30.189,0,45.682,18.037,45.682,49.609v6.221h-29.32v-8.186
			c0-14.1-5.646-19.449-15.527-19.449c-9.875,0-15.516,5.35-15.516,19.449c0,40.619,60.656,48.23,60.656,104.656
			c0,31.594-15.785,49.645-46.27,49.645c-30.465,0-46.248-18.051-46.248-49.645v-12.123h29.324v14.096
			c0,14.104,6.219,19.191,16.08,19.191c9.855,0,16.078-5.088,16.078-19.191c0-40.631-60.637-48.229-60.637-104.664
			C968.879,103.807,984.367,85.77,1014.576,85.77"/>
		<path fill="#FFFFFF" d="M1120.033,85.77c30.182,0,45.691,18.037,45.691,49.609v6.221h-29.344v-8.186
			c0-14.1-5.623-19.449-15.5-19.449c-9.863,0-15.527,5.35-15.527,19.449c0,40.619,60.666,48.23,60.666,104.656
			c0,31.594-15.805,49.645-46.252,49.645c-30.482,0-46.275-18.051-46.275-49.645v-12.123h29.336v14.096
			c0,14.104,6.223,19.191,16.078,19.191c9.881,0,16.07-5.088,16.07-19.191c0-40.631-60.631-48.229-60.631-104.664
			C1074.346,103.807,1089.861,85.77,1120.033,85.77"/>
	</g>
	<path fill="#FFFFFF" d="M1213.379,222.836h29.908l-14.965-99.84L1213.379,222.836z M1284.184,285.445h-31.303l-5.355-35.809h-38.1
		l-5.348,35.809h-28.49l31.586-197.436h45.424L1284.184,285.445z"/>
	<rect x="947.137" y="313.213" fill="#FFFFFF" width="337.047" height="15.258"/>
</g>
</svg>
